<svg width="652" height="328" viewBox="0 0 652 328" fill="none" xmlns="http://www.w3.org/2000/svg">
<g filter="url(#filter0_bdddiii_117_1114)">
<path fill-rule="evenodd" clip-rule="evenodd" d="M21 282.011V45.3194C21 32.0646 31.7452 21.3195 45 21.3195H425.545C434.381 21.3195 441.545 28.4829 441.545 37.3194V50.0739C441.545 58.9105 448.708 66.0739 457.545 66.0739H614.341C623.177 66.0739 630.341 73.2374 630.341 82.0739V282.011C630.341 295.266 619.595 306.011 606.341 306.011H45C31.7452 306.011 21 295.266 21 282.011Z" fill="#6285FE"/>
<path fill-rule="evenodd" clip-rule="evenodd" d="M21 282.011V45.3194C21 32.0646 31.7452 21.3195 45 21.3195H425.545C434.381 21.3195 441.545 28.4829 441.545 37.3194V50.0739C441.545 58.9105 448.708 66.0739 457.545 66.0739H614.341C623.177 66.0739 630.341 73.2374 630.341 82.0739V282.011C630.341 295.266 619.595 306.011 606.341 306.011H45C31.7452 306.011 21 295.266 21 282.011Z" fill="#000210" fill-opacity="0.2"/>
<path d="M20 45.3194V282.011H22V45.3194H20ZM45 20.3195C31.1929 20.3195 20 31.5123 20 45.3194H22C22 32.6169 32.2975 22.3195 45 22.3195V20.3195ZM425.545 20.3195H45V22.3195H425.545V20.3195ZM442.545 50.0739V37.3194H440.545V50.0739H442.545ZM614.341 65.0739H457.545V67.0739H614.341V65.0739ZM631.341 282.011V82.0739H629.341V282.011H631.341ZM606.341 307.011C620.148 307.011 631.341 295.819 631.341 282.011H629.341C629.341 294.714 619.043 305.011 606.341 305.011V307.011ZM45 307.011H606.341V305.011H45V307.011ZM20 282.011C20 295.818 31.1929 307.011 45 307.011V305.011C32.2975 305.011 22 294.714 22 282.011H20ZM614.341 67.0739C622.625 67.0739 629.341 73.7897 629.341 82.0739H631.341C631.341 72.6851 623.729 65.0739 614.341 65.0739V67.0739ZM440.545 50.0739C440.545 59.4628 448.156 67.0739 457.545 67.0739V65.0739C449.261 65.0739 442.545 58.3582 442.545 50.0739H440.545ZM425.545 22.3195C433.829 22.3195 440.545 29.0352 440.545 37.3194H442.545C442.545 27.9306 434.934 20.3195 425.545 20.3195V22.3195Z" fill="#FCFDFD"/>
</g>
<defs>
<filter id="filter0_bdddiii_117_1114" x="0" y="0.319458" width="651.341" height="326.692" filterUnits="userSpaceOnUse" color-interpolation-filters="sRGB">
<feFlood flood-opacity="0" result="BackgroundImageFix"/>
<feGaussianBlur in="BackgroundImageFix" stdDeviation="5.5"/>
<feComposite in2="SourceAlpha" operator="in" result="effect1_backgroundBlur_117_1114"/>
<feColorMatrix in="SourceAlpha" type="matrix" values="0 0 0 0 0 0 0 0 0 0 0 0 0 0 0 0 0 0 127 0" result="hardAlpha"/>
<feOffset/>
<feGaussianBlur stdDeviation="10"/>
<feComposite in2="hardAlpha" operator="out"/>
<feColorMatrix type="matrix" values="0 0 0 0 0 0 0 0 0 0.52 0 0 0 0 1 0 0 0 1 0"/>
<feBlend mode="normal" in2="effect1_backgroundBlur_117_1114" result="effect2_dropShadow_117_1114"/>
<feColorMatrix in="SourceAlpha" type="matrix" values="0 0 0 0 0 0 0 0 0 0 0 0 0 0 0 0 0 0 127 0" result="hardAlpha"/>
<feOffset/>
<feGaussianBlur stdDeviation="10"/>
<feComposite in2="hardAlpha" operator="out"/>
<feColorMatrix type="matrix" values="0 0 0 0 0 0 0 0 0 0.52 0 0 0 0 1 0 0 0 1 0"/>
<feBlend mode="normal" in2="effect2_dropShadow_117_1114" result="effect3_dropShadow_117_1114"/>
<feColorMatrix in="SourceAlpha" type="matrix" values="0 0 0 0 0 0 0 0 0 0 0 0 0 0 0 0 0 0 127 0" result="hardAlpha"/>
<feOffset/>
<feGaussianBlur stdDeviation="3.5"/>
<feComposite in2="hardAlpha" operator="out"/>
<feColorMatrix type="matrix" values="0 0 0 0 1 0 0 0 0 1 0 0 0 0 1 0 0 0 1 0"/>
<feBlend mode="normal" in2="effect3_dropShadow_117_1114" result="effect4_dropShadow_117_1114"/>
<feBlend mode="normal" in="SourceGraphic" in2="effect4_dropShadow_117_1114" result="shape"/>
<feColorMatrix in="SourceAlpha" type="matrix" values="0 0 0 0 0 0 0 0 0 0 0 0 0 0 0 0 0 0 127 0" result="hardAlpha"/>
<feOffset/>
<feGaussianBlur stdDeviation="10"/>
<feComposite in2="hardAlpha" operator="arithmetic" k2="-1" k3="1"/>
<feColorMatrix type="matrix" values="0 0 0 0 0 0 0 0 0 0.88 0 0 0 0 1 0 0 0 1 0"/>
<feBlend mode="normal" in2="shape" result="effect5_innerShadow_117_1114"/>
<feColorMatrix in="SourceAlpha" type="matrix" values="0 0 0 0 0 0 0 0 0 0 0 0 0 0 0 0 0 0 127 0" result="hardAlpha"/>
<feOffset/>
<feGaussianBlur stdDeviation="10"/>
<feComposite in2="hardAlpha" operator="arithmetic" k2="-1" k3="1"/>
<feColorMatrix type="matrix" values="0 0 0 0 0 0 0 0 0 0.88 0 0 0 0 1 0 0 0 1 0"/>
<feBlend mode="normal" in2="effect5_innerShadow_117_1114" result="effect6_innerShadow_117_1114"/>
<feColorMatrix in="SourceAlpha" type="matrix" values="0 0 0 0 0 0 0 0 0 0 0 0 0 0 0 0 0 0 127 0" result="hardAlpha"/>
<feOffset/>
<feGaussianBlur stdDeviation="3.5"/>
<feComposite in2="hardAlpha" operator="arithmetic" k2="-1" k3="1"/>
<feColorMatrix type="matrix" values="0 0 0 0 1 0 0 0 0 1 0 0 0 0 1 0 0 0 1 0"/>
<feBlend mode="normal" in2="effect6_innerShadow_117_1114" result="effect7_innerShadow_117_1114"/>
</filter>
</defs>
</svg>
