<svg width="400" height="344" viewBox="0 0 400 344" fill="none" xmlns="http://www.w3.org/2000/svg">
<g filter="url(#filter0_b_221_295)">
<mask id="path-1-inside-1_221_295" fill="white">
<path fill-rule="evenodd" clip-rule="evenodd" d="M0 320V24C0 10.7452 10.7452 0 24 0H189C201.15 0 211 9.84974 211 22V22C211 34.1503 220.85 44 233 44H376C389.255 44 400 54.7452 400 68V320C400 333.255 389.255 344 376 344H24C10.7452 344 0 333.255 0 320ZM400 24V24C400 10.7452 389.255 0 376 0V0C389.255 0 400 10.7452 400 24Z"/>
</mask>
<path d="M-2 24V320H2V24H-2ZM24 -2C9.6406 -2 -2 9.64059 -2 24H2C2 11.8497 11.8497 2 24 2V-2ZM189 -2H24V2H189V-2ZM376 42H233V46H376V42ZM402 320V68H398V320H402ZM376 346C390.359 346 402 334.359 402 320H398C398 332.15 388.15 342 376 342V346ZM24 346H376V342H24V346ZM-2 320C-2 334.359 9.6406 346 24 346V342C11.8497 342 2 332.15 2 320H-2ZM402 24C402 9.6406 390.359 -2 376 -2V2C388.15 2 398 11.8497 398 24H402ZM376 46C388.15 46 398 55.8497 398 68H402C402 53.6406 390.359 42 376 42V46ZM402 24C402 9.6406 390.359 -2 376 -2V2C388.15 2 398 11.8497 398 24H402ZM209 22C209 35.2548 219.745 46 233 46V42C221.954 42 213 33.0457 213 22H209ZM189 2C200.046 2 209 10.9543 209 22H213C213 8.74517 202.255 -2 189 -2V2Z" fill="#CDD8FF" mask="url(#path-1-inside-1_221_295)"/>
</g>
<defs>
<filter id="filter0_b_221_295" x="-11" y="-11" width="422" height="366" filterUnits="userSpaceOnUse" color-interpolation-filters="sRGB">
<feFlood flood-opacity="0" result="BackgroundImageFix"/>
<feGaussianBlur in="BackgroundImageFix" stdDeviation="5.5"/>
<feComposite in2="SourceAlpha" operator="in" result="effect1_backgroundBlur_221_295"/>
<feBlend mode="normal" in="SourceGraphic" in2="effect1_backgroundBlur_221_295" result="shape"/>
</filter>
</defs>
</svg>
