<svg width="400" height="344" viewBox="0 0 400 344" fill="none" xmlns="http://www.w3.org/2000/svg">
<g filter="url(#filter0_b_221_295)">
<mask id="path-1-inside-1_221_295" fill="white">
<path fill-rule="evenodd" clip-rule="evenodd" d="M0 320V24C0 10.7452 10.7452 0 24 0H211H376V0C389.255 0 400 10.7452 400 24V24V44V320C400 333.255 389.255 344 376 344H24C10.7452 344 0 333.255 0 320Z"/>
</mask>
<path d="M-2 24V320H2V24H-2ZM24 -2C9.6406 -2 -2 9.64059 -2 24H2C2 11.8497 11.8497 2 24 2V-2ZM211 -2H24V2H211V-2ZM211 2H376V-2H211V2ZM398 24V44H402V24H398ZM402 320V44H398V320H402ZM376 346C390.359 346 402 334.359 402 320H398C398 332.15 388.15 342 376 342V346ZM24 346H376V342H24V346ZM-2 320C-2 334.359 9.6406 346 24 346V342C11.8497 342 2 332.15 2 320H-2ZM376 2C388.15 2 398 11.8497 398 24H402C402 9.6406 390.359 -2 376 -2V2Z" fill="#CDD8FF" mask="url(#path-1-inside-1_221_295)"/>
</g>
<defs>
<filter id="filter0_b_221_295" x="-11" y="-11" width="422" height="366" filterUnits="userSpaceOnUse" color-interpolation-filters="sRGB">
<feFlood flood-opacity="0" result="BackgroundImageFix"/>
<feGaussianBlur in="BackgroundImageFix" stdDeviation="5.5"/>
<feComposite in2="SourceAlpha" operator="in" result="effect1_backgroundBlur_221_295"/>
<feBlend mode="normal" in="SourceGraphic" in2="effect1_backgroundBlur_221_295" result="shape"/>
</filter>
</defs>
</svg>
