<svg width="1697" height="423" viewBox="0 0 1697 423" fill="none" xmlns="http://www.w3.org/2000/svg">
<g clip-path="url(#clip0_153_1424)">
<path d="M0.149983 210.73C0.149983 179.27 0.259983 147.82 0.0699829 116.36C-1.70693e-05 107.93 3.49998 102.17 10.7 98.0999C66.62 66.4999 122.513 34.8333 178.38 3.09994C185.38 -0.900058 192.08 -1.19006 199.16 2.81994C255.313 34.6999 311.493 66.5266 367.7 98.2999C374.7 102.3 378.01 108.05 377.97 116.3C377.81 149.59 377.97 182.88 377.8 216.17C377.8 220.11 379.14 222.06 382.43 223.89C398.88 232.99 415.15 242.42 431.59 251.55C441.24 256.91 445.95 264.67 445.8 275.89C445.51 297.69 445.6 319.5 445.8 341.3C445.88 351.71 441.31 359.06 432.44 364.08C413.04 375.08 393.59 385.99 374.27 397.08C365.1 402.36 356.19 402.81 346.88 397.44C330.28 387.87 313.53 378.62 297 369C293.7 367.09 291.21 367 287.87 368.94C258.11 385.94 228.2 402.71 198.47 419.77C191.85 423.57 186.05 423.39 179.47 419.63C147.7 401.44 115.78 383.53 83.92 365.51C60.17 352.07 36.52 338.44 12.63 325.26C3.99998 320.52 -0.120017 314.23 -1.70714e-05 304.1C0.389983 273 0.149983 241.85 0.149983 210.73ZM206.84 374.25C207.779 373.918 208.7 373.537 209.6 373.11C230.47 361.32 251.29 349.46 272.21 337.79C274.89 336.29 274.74 334.26 274.74 331.93C274.74 312.79 274.86 293.65 274.69 274.51C274.59 264.1 279.16 256.86 288.14 251.86C305 242.46 321.69 232.75 338.57 223.4C341.68 221.68 342.63 219.7 342.57 216.31C342.44 193.84 342.52 171.37 342.48 148.9C342.48 147.66 343.03 146.24 341.39 144.79C304.1 167.5 281.82 200.25 275.02 243.61C274.748 241.783 274.638 239.936 274.69 238.09C274.69 221.28 274.62 204.47 274.75 187.66C274.75 183.91 274.17 182.83 270.46 184.96C250.707 196.32 230.887 207.547 211 218.64C207.8 220.43 206.77 222.48 206.78 226.09C206.9 273.69 206.927 321.29 206.86 368.89L206.84 374.25Z" fill="#6283FE"/>
<path d="M1567.5 196.15V185.24C1567.5 167.113 1567.5 148.98 1567.5 130.84C1567.5 123.12 1569.86 120.84 1577.69 120.84C1585.52 120.84 1593.34 120.78 1601.16 120.84C1607.29 120.9 1609.95 123.57 1609.95 129.72C1609.95 196.387 1609.95 263.093 1609.95 329.84C1609.95 336.09 1607.41 338.71 1601.27 338.77C1593.62 338.84 1585.96 338.85 1578.27 338.77C1571.77 338.7 1569.43 336.19 1569.37 329.51C1569.37 326.91 1569.37 324.3 1569.37 321.66C1567.53 321.55 1567.14 322.87 1566.44 323.66C1558.59 332.163 1548.24 337.952 1536.88 340.19C1525.12 342.742 1512.94 342.688 1501.2 340.03C1479.3 335.03 1465.3 320.98 1458.35 300.18C1449.84 274.924 1449.35 247.655 1456.95 222.11C1465.95 190.83 1490.69 174.37 1523.25 176.23C1540.08 177.12 1554.68 182.72 1567.5 196.15ZM1495.4 259.48C1495.86 268.17 1495.84 277.31 1498.91 286.14C1503.51 299.37 1512.37 307.14 1526.49 308.46C1541.79 309.87 1555.21 306.24 1561.88 291.1C1570.75 270.95 1570.77 249.8 1563.48 229.32C1558.25 214.62 1546.35 208.81 1528.98 209.41C1514.64 209.91 1504.42 217.06 1499.49 230.04C1495.94 239.4 1495.7 249.23 1495.4 259.48Z" fill="#2F2F3C"/>
<path d="M1377.76 320.27C1353.17 345.36 1313.49 349.27 1287.38 329.62C1261.49 310.16 1262.63 276.14 1289.82 258.62C1305.16 248.72 1322.53 245.09 1340.27 242.68C1350.99 241.22 1361.68 239.59 1372.41 238.23C1375.41 237.85 1376.85 236.8 1376.41 233.58C1376.12 231.28 1376.41 228.92 1376.2 226.58C1375.2 214.77 1368.92 207.8 1357.32 205.3C1339.92 201.55 1326.32 207.85 1315.52 221.18C1313.75 223.37 1312.07 224.45 1309.33 224.41C1302.17 224.32 1295.01 224.41 1287.85 224.41C1281.1 224.34 1278.38 220.95 1279.96 214.48C1282.05 205.91 1287.02 199.12 1293.7 193.6C1310.7 179.6 1330.7 175.6 1352.11 176.23C1359.94 176.333 1367.74 177.255 1375.38 178.98C1402.56 185.63 1418.57 205.56 1418.78 233.62C1419.01 265.73 1418.85 297.84 1418.78 329.95C1418.78 336.25 1416.28 338.74 1410.02 338.8C1402.36 338.88 1394.71 338.86 1387.02 338.8C1380.02 338.8 1377.72 336.41 1377.67 329.56C1377.74 326.62 1377.76 323.73 1377.76 320.27ZM1376.89 271.2C1376.82 270.371 1376.82 269.539 1376.89 268.71C1377.59 264.27 1376.26 263.07 1371.55 264.04C1362.27 265.95 1352.81 266.98 1343.46 268.55C1334.46 270.07 1325.46 272.02 1317.72 277.36C1305.43 285.88 1306.45 301.98 1319.94 308.44C1332.94 314.68 1346.2 314.13 1358.67 306.85C1372.19 299 1376.29 285.89 1376.89 271.2Z" fill="#2F2F3C"/>
<path d="M790.56 320C788.39 322.36 786.94 324.07 785.35 325.65C762.26 348.65 714.62 347.29 692.87 323.07C675.43 303.65 678.36 275.99 699.59 260.69C713.74 250.5 730.06 246.14 746.98 243.6C759.647 241.7 772.313 239.917 784.98 238.25C788.17 237.83 789.77 236.76 789.27 233.25C788.86 230.3 789.04 227.25 788.6 224.32C786.86 212.6 779.19 206.21 766.35 204.6C750.35 202.6 738.16 209.08 728.44 221.05C727.641 222.184 726.561 223.092 725.306 223.682C724.05 224.273 722.663 224.527 721.28 224.42C714.62 224.28 707.96 224.42 701.28 224.42C693.52 224.42 690.67 220.69 692.99 213.18C695.99 203.6 702.12 196.34 710.22 190.61C726.73 178.92 745.42 175.56 765.22 176.24C776.76 176.64 788.22 177.9 798.89 182.48C819.53 191.3 830.48 207.69 831.15 229.48C832.15 263.38 831.53 297.34 831.5 331.27C831.5 336 828.82 338.69 824.03 338.77C815.363 338.93 806.697 338.93 798.03 338.77C793.03 338.67 790.63 335.92 790.52 330.77C790.5 327.45 790.56 324.19 790.56 320ZM750.35 312.45C762.69 312.45 773.27 308.34 781.04 298.55C788.81 288.76 789.85 277.3 789.59 265.46C789.53 262.34 787.44 263.71 786.06 263.91C776.06 265.43 766 266.91 755.99 268.61C747.93 269.95 739.99 271.83 732.8 275.91C726.15 279.69 721.74 284.96 722.21 293.13C722.68 301.3 727.43 306.47 734.78 309.52C739.719 311.535 745.016 312.525 750.35 312.43V312.45Z" fill="#2F2F3C"/>
<path d="M1124.56 199C1140.56 181 1160.06 175 1182.31 176.4C1212.54 178.4 1233.51 197.77 1238.31 227.87C1239.24 233.788 1239.7 239.77 1239.68 245.76C1239.68 273.387 1239.68 301.013 1239.68 328.64C1239.68 336.64 1237.57 338.75 1229.68 338.77C1221.79 338.79 1213.68 338.77 1205.68 338.77C1198.81 338.77 1196.37 336.3 1196.36 329.47C1196.36 302.01 1196.36 274.547 1196.36 247.08C1196.36 237.03 1194.51 227.48 1187.5 219.74C1177.3 208.49 1164.21 207.42 1150.69 210.9C1137.56 214.28 1130.16 223.77 1127.38 236.9C1126.68 240.329 1126.35 243.821 1126.38 247.32C1126.42 274.44 1126.42 301.567 1126.38 328.7C1126.38 336.6 1124.22 338.76 1116.38 338.78C1108.54 338.8 1100.38 338.83 1092.38 338.78C1085.84 338.73 1083.38 336.24 1083.38 329.65C1083.38 282.55 1083.38 235.45 1083.38 188.35C1083.38 181.82 1085.87 179.35 1092.45 179.26C1100.28 179.18 1108.11 179.16 1115.94 179.26C1121.94 179.34 1124.36 181.89 1124.46 187.83C1124.61 191.09 1124.56 194.39 1124.56 199Z" fill="#2F2F3C"/>
<path d="M929 273C929 291.48 929 309.957 929 328.43C929 336.73 927 338.73 918.69 338.75C911.69 338.75 904.69 338.75 897.69 338.75C890.12 338.75 887.85 336.45 887.85 328.91C887.85 291.8 887.75 254.69 887.97 217.57C887.97 212.83 886.57 211.71 882.16 211.97C876.02 212.32 869.84 212.13 863.68 212.04C857.52 211.95 854.98 209.29 854.91 203.04C854.85 197.89 854.81 192.72 854.91 187.57C855.01 182.02 857.66 179.3 863.24 179.19C870.06 179.05 876.9 178.99 883.72 179.19C886.99 179.3 888.01 178.3 887.9 175.02C887.59 165.02 887.7 155.02 890.75 145.35C897.3 124.62 913.12 115.78 933.25 112.71C945.99 110.71 958.85 111.71 971.66 111.71C976.15 111.71 978.66 114.57 978.77 119.08C978.91 124.9 978.91 130.723 978.77 136.55C978.65 141.7 975.87 144.37 970.53 144.47C963.87 144.59 957.2 144.47 950.53 144.47C936.61 144.56 930.53 150.19 929.17 164.04C927.76 179.04 927.76 179.04 942.71 179.04C950.71 179.04 958.71 178.98 966.71 179.04C973.19 179.11 975.63 181.67 975.71 188.21C975.71 192.87 975.71 197.53 975.71 202.21C975.71 209.43 973.33 211.88 966.22 211.91C955.72 211.91 945.22 212.12 934.74 211.82C930.36 211.7 928.74 212.66 928.87 217.46C929.15 236.07 929 254.55 929 273Z" fill="#2F2F3C"/>
<path d="M605.11 198.59C616.61 184.7 631.53 179.46 648.6 179.21C653.26 179.14 657.93 179.07 662.6 179.21C667.68 179.39 670.23 181.97 670.33 187.06C670.463 194.04 670.463 201.04 670.33 208.06C670.23 213.73 667.63 216.28 661.97 216.35C654.15 216.45 646.32 216.35 638.5 216.35C617.58 216.52 606.44 227.71 606.42 248.54C606.42 275.16 606.42 301.783 606.42 328.41C606.42 336.58 604.26 338.73 596.06 338.75C588.23 338.75 580.41 338.8 572.58 338.75C565.88 338.7 563.43 336.35 563.43 329.82C563.43 282.56 563.43 235.303 563.43 188.05C563.43 181.86 566.02 179.28 572.23 179.2C580.06 179.11 587.88 179.1 595.71 179.2C601.83 179.29 604.44 182.02 604.56 188.12C604.62 191.28 604.61 194.44 604.65 197.6C604.64 197.75 604.76 197.88 605.11 198.59Z" fill="#2F2F3C"/>
<path d="M1000.5 258.71C1000.5 235.41 1000.5 212.113 1000.5 188.82C1000.5 181.52 1002.73 179.24 1009.99 179.2C1017.82 179.2 1025.65 179.12 1033.47 179.2C1039.62 179.28 1042.23 181.93 1042.24 188.14C1042.24 235.387 1042.24 282.64 1042.24 329.9C1042.24 336.07 1039.61 338.68 1033.42 338.74C1025.27 338.82 1017.11 338.84 1008.95 338.74C1003.03 338.66 1000.52 336.06 1000.51 330.09C1000.48 306.29 1000.47 282.497 1000.5 258.71Z" fill="#2F2F3C"/>
<path d="M1673.25 338.76C1668.1 338.76 1662.94 338.87 1657.8 338.76C1652.49 338.61 1649.94 335.98 1649.9 330.66C1649.83 320.86 1649.83 311.063 1649.9 301.27C1649.9 295.99 1652.52 293.27 1657.83 293.17C1668.13 293.023 1678.43 293.023 1688.73 293.17C1693.98 293.26 1696.82 296.44 1696.85 301.83C1696.92 311.29 1696.92 320.753 1696.85 330.22C1696.85 335.87 1693.95 338.66 1688.19 338.77C1683.22 338.84 1678.23 338.77 1673.25 338.76Z" fill="#2F2F3C"/>
<path d="M1021.48 115.69C1025.97 115.69 1030.48 115.62 1034.96 115.69C1040.65 115.79 1043.33 118.32 1043.43 123.85C1043.55 130.85 1043.53 137.85 1043.43 144.85C1043.36 149.96 1040.56 152.92 1035.43 153.01C1025.94 153.177 1016.45 153.177 1006.96 153.01C1002.01 152.93 999.4 150.14 999.32 145.08C999.2 137.93 999.18 130.77 999.32 123.61C999.43 118.4 1002.21 115.81 1007.53 115.71C1012.15 115.62 1016.81 115.69 1021.48 115.69Z" fill="#2F2F3C"/>
</g>
<defs>
<clipPath id="clip0_153_1424">
<rect width="1696.92" height="422.56" fill="white"/>
</clipPath>
</defs>
</svg>
