<svg width="1214" height="1483" viewBox="0 0 1214 1483" fill="none" xmlns="http://www.w3.org/2000/svg">
<g opacity="0.3" filter="url(#filter0_f_150_325)">
<path d="M343.747 373.642C341.049 375.131 348.442 367.915 348.58 367.814C354.08 363.785 359.588 359.787 365.101 355.799C379.735 345.213 394.404 334.733 409.13 324.451C454.758 292.592 500.703 261.796 547.122 232.738C657.829 163.438 776.068 89.8803 896.231 73.0608C946.384 66.0408 1009.93 73.4843 1036.05 150.97C1083.74 292.404 977.858 420.304 908.484 479.282C764.123 602.009 598.936 663.653 443.38 743.15C393.405 768.689 343.066 794.791 295.432 829.56C277.011 843.006 251.568 858.801 238.628 884.604C237.3 887.251 240.553 878.562 241.109 875.332C242.36 868.066 242.394 860.461 241.714 853.048C239.693 831.039 230.56 805.2 216.53 796.134C214.312 794.701 221.196 797.978 223.57 798.579C228.512 799.83 233.512 800.539 238.508 801.006C253.139 802.373 267.847 801.779 282.471 800.538C325.41 796.894 368.14 787.531 410.573 777.134C577.403 736.257 741.755 674.804 907.679 626.483C923.41 621.901 939.176 617.574 954.961 613.453C1003.94 600.666 1110.66 561.205 1137.68 651.733C1154.41 707.745 1128.95 757.426 1099.23 785.74C1031.41 850.359 947.986 884.153 873.408 925.043C847.588 939.199 821.763 953.331 796.008 967.76C760.51 987.646 725.125 1008.02 690.027 1029.51C645.812 1056.59 601.955 1085.39 559.54 1118.62C509.205 1158.06 375.078 1265.1 443.688 1374.47C452.785 1388.98 463.456 1400.82 474.509 1411.54C477.014 1413.97 465.034 1406.09 464.102 1405.29C458.299 1400.33 452.553 1394.88 447.256 1388.72C428.871 1367.34 414.161 1339.55 413.61 1302.77C412.297 1215.01 481.635 1142.69 522.096 1098.57C631.17 979.612 754.99 892.44 874.489 801.55C921.154 766.058 1011.36 709.463 1047.92 654.894C1048.95 653.351 1046.16 658.422 1045.47 660.372C1044.35 663.595 1043.39 666.938 1042.69 670.438C1040.73 680.102 1040.27 690.499 1041.4 700.479C1044.36 726.505 1058.02 752.443 1075.94 755.563C1077.16 755.776 1073.48 755.531 1072.25 755.67C1069.9 755.938 1067.54 756.38 1065.2 756.853C1058.07 758.29 1051 760.423 1043.96 762.665C1022.58 769.478 1001.44 778.331 980.419 787.36C915.789 815.115 851.804 846.322 787.635 876.454C627.288 951.747 422.162 1058.29 254.764 1062.43C176.778 1064.36 79.9356 1025.33 71.5667 882.26C64.4321 760.286 125.816 673.051 190.88 622.369C329.398 514.47 500.519 478.904 650.587 424.937C704.68 405.484 758.793 384.947 811.549 358.041C834.88 346.142 857.982 333.023 880.31 317.182C901.309 302.285 1006.77 211.457 935.904 187.029C929.027 184.659 922.037 183.119 915.024 182.062C903.143 180.272 891.175 179.83 879.243 180.073C784.651 182.001 689.533 216.874 598.416 252.97C512.367 287.058 427.366 327.492 343.747 373.642Z" fill="url(#paint0_linear_150_325)"/>
</g>
<defs>
<filter id="filter0_f_150_325" x="0" y="0" width="1214" height="1483" filterUnits="userSpaceOnUse" color-interpolation-filters="sRGB">
<feFlood flood-opacity="0" result="BackgroundImageFix"/>
<feBlend mode="normal" in="SourceGraphic" in2="BackgroundImageFix" result="shape"/>
<feGaussianBlur stdDeviation="35.5" result="effect1_foregroundBlur_150_325"/>
</filter>
<linearGradient id="paint0_linear_150_325" x1="248.75" y1="575.195" x2="938.97" y2="524.488" gradientUnits="userSpaceOnUse">
<stop stop-color="#FB25FF"/>
<stop offset="0.54658" stop-color="#4B75FF"/>
<stop offset="1" stop-color="#0BFFC4"/>
</linearGradient>
</defs>
</svg>
