<svg width="643" height="352" viewBox="0 0 643 352" fill="none" xmlns="http://www.w3.org/2000/svg">
<g filter="url(#filter0_f_117_448)">
<path d="M571.025 103.067C571.506 103.255 563.572 103.937 562.292 104.013C556.331 104.366 550.369 104.776 544.421 105.37C526.548 107.155 508.77 109.771 491.155 113.231C437.744 123.723 385.228 140.994 338.577 166.491C301.18 186.93 271.638 212.135 245.596 242.414C230.032 260.511 209.516 273.874 183.555 278.825C124.31 290.125 68.6596 251.383 71.1727 200.59C73.8739 145.994 138.67 119.075 191.554 100.894C305.599 61.6874 461.447 60.2911 571.025 103.067Z" fill="url(#paint0_linear_117_448)"/>
</g>
<defs>
<filter id="filter0_f_117_448" x="0.0905762" y="0.236328" width="641.955" height="351.561" filterUnits="userSpaceOnUse" color-interpolation-filters="sRGB">
<feFlood flood-opacity="0" result="BackgroundImageFix"/>
<feBlend mode="normal" in="SourceGraphic" in2="BackgroundImageFix" result="shape"/>
<feGaussianBlur stdDeviation="35.5" result="effect1_foregroundBlur_117_448"/>
</filter>
<linearGradient id="paint0_linear_117_448" x1="150.798" y1="166.335" x2="448.128" y2="48.7367" gradientUnits="userSpaceOnUse">
<stop stop-color="#FB25FF"/>
<stop offset="0.54658" stop-color="#4B75FF"/>
<stop offset="1" stop-color="#0BFFC4"/>
</linearGradient>
</defs>
</svg>
